<?xml version="1.0" standalone="no"?>
<!DOCTYPE svg PUBLIC "-//W3C//DTD SVG 20010904//EN"
 "http://www.w3.org/TR/2001/REC-SVG-20010904/DTD/svg10.dtd">
<svg version="1.0" xmlns="http://www.w3.org/2000/svg"
 width="512.000000pt" height="512.000000pt" viewBox="0 0 512.000000 512.000000"
 preserveAspectRatio="xMidYMid meet">
<metadata>
Created by potrace 1.11, written by Peter Selinger 2001-2013
</metadata>
<g transform="translate(0.000000,512.000000) scale(0.100000,-0.100000)"
fill="#000000" stroke="none">
<path d="M3378 5081 c-131 -42 -240 -143 -272 -253 -12 -39 -14 -40 -63 -44
-67 -5 -120 -28 -165 -71 l-37 -36 -78 24 c-104 32 -307 35 -393 5 -73 -25
-158 -67 -228 -113 -84 -56 -239 -215 -305 -314 -265 -399 -363 -1030 -271
-1754 84 -668 256 -1152 563 -1585 340 -480 934 -920 1241 -920 95 0 133 37
134 132 1 24 6 38 14 38 7 0 -61 91 -150 203 -185 229 -279 368 -379 561 -228
439 -322 843 -298 1279 20 354 113 628 305 897 29 41 104 140 165 220 126 164
211 301 244 393 74 204 44 420 -81 587 l-56 74 16 49 c19 58 21 130 4 190 -11
41 -10 46 24 98 50 78 110 129 152 129 47 0 77 -28 136 -125 65 -108 129 -165
185 -165 86 1 185 79 185 147 0 170 -111 298 -309 357 -74 22 -210 20 -283 -3z
m179 -57 c-3 -3 -12 -4 -19 -1 -8 3 -5 6 6 6 11 1 17 -2 13 -5z m-117 -14 c-8
-5 -22 -10 -30 -10 -13 0 -13 1 0 10 8 5 22 10 30 10 13 0 13 -1 0 -10z m250
-15 c7 -8 9 -15 6 -15 -4 0 -14 7 -22 15 -9 8 -11 15 -6 15 5 0 15 -7 22 -15z
m-72 -95 c6 -24 9 -46 7 -48 -2 -2 -9 16 -15 39 -7 24 -23 60 -37 79 l-25 35
29 -30 c16 -16 34 -50 41 -75z m153 53 c13 -17 13 -17 -6 -3 -11 8 -22 16 -24
17 -2 2 0 3 6 3 6 0 17 -8 24 -17z m-374 -9 c-3 -3 -12 -4 -19 -1 -8 3 -5 6 6
6 11 1 17 -2 13 -5z m-137 -19 c-7 -9 -15 -13 -19 -10 -3 3 1 10 9 15 21 14
24 12 10 -5z m555 -5 c3 -6 -1 -7 -9 -4 -18 7 -21 14 -7 14 6 0 13 -4 16 -10z
m-132 -69 c0 -28 -3 -55 -9 -61 -5 -6 -8 15 -6 56 4 76 13 79 15 5z m162 49
c3 -5 1 -10 -4 -10 -6 0 -11 5 -11 10 0 6 2 10 4 10 3 0 8 -4 11 -10z m-510
-10 c-3 -5 -18 -9 -33 -9 l-27 1 30 8 c17 4 31 8 33 9 2 0 0 -3 -3 -9z m-142
-45 c-3 -9 -8 -14 -10 -11 -3 3 -2 9 2 15 9 16 15 13 8 -4z m52 -45 c-3 -5
-12 -10 -18 -10 -7 0 -6 4 3 10 19 12 23 12 15 0z m669 -16 c9 -24 2 -26 -12
-4 -7 11 -8 20 -3 20 5 0 12 -7 15 -16z m-679 -44 c-3 -5 -12 -10 -18 -10 -7
0 -6 4 3 10 19 12 23 12 15 0z m505 -40 c0 -5 -5 -10 -11 -10 -5 0 -7 5 -4 10
3 6 8 10 11 10 2 0 4 -4 4 -10z m37 -52 c-3 -7 -5 -2 -5 12 0 14 2 19 5 13 2
-7 2 -19 0 -25z m-616 -44 c13 -14 17 -23 9 -19 -13 5 -46 45 -37 45 2 0 14
-11 28 -26z m-24 -36 c-3 -8 -6 -5 -6 6 -1 11 2 17 5 13 3 -3 4 -12 1 -19z
m78 -9 c11 -17 -1 -21 -15 -4 -8 9 -8 15 -2 15 6 0 14 -5 17 -11z m-51 -66 c3
-7 4 -13 2 -13 -6 0 -46 38 -46 44 0 10 39 -17 44 -31z"/>
</g>
</svg>
